<svg xmlns="http://www.w3.org/2000/svg" width="212" height="72" fill="none"><rect width="209.667" height="68.714" x="1.452" y="1.46" fill="#000" rx="9.69"/><rect width="209.667" height="68.714" x="1.452" y="1.46" stroke="#A6A6A6" stroke-width="1.762" rx="9.69"/><path fill="#fff" d="M44.099 37.161a9.44 9.44 0 0 1 1.282-4.62 9.7 9.7 0 0 1 3.405-3.442 10 10 0 0 0-3.462-3.011 10.3 10.3 0 0 0-4.477-1.18c-3.34-.341-6.577 1.952-8.28 1.952-1.734 0-4.355-1.917-7.177-1.86a10.76 10.76 0 0 0-5.163 1.504 10.44 10.44 0 0 0-3.733 3.793c-3.847 6.502-.978 16.058 2.707 21.314 1.844 2.573 3.998 5.448 6.818 5.346 2.758-.112 3.789-1.718 7.119-1.718 3.3 0 4.266 1.718 7.143 1.653 2.96-.047 4.825-2.585 6.604-5.183a21.1 21.1 0 0 0 3.02-6.005 9.46 9.46 0 0 1-4.22-3.418 9.13 9.13 0 0 1-1.586-5.125M38.665 21.452a9.31 9.31 0 0 0 2.217-6.778 9.94 9.94 0 0 0-6.38 3.223 9 9 0 0 0-1.803 3.042 8.8 8.8 0 0 0-.471 3.485 8.3 8.3 0 0 0 3.568-.763 8.1 8.1 0 0 0 2.87-2.209M65.394 15.01h3.646c3.152 0 4.685 1.874 4.685 5.273s-1.549 5.296-4.684 5.296h-3.647zm1.757 1.479V24.1h1.696c2.09 0 3.074-1.262 3.074-3.794 0-2.547-.991-3.817-3.074-3.817zm12.133.766c2.137 0 3.631 1.386 3.631 3.686v1.06c0 2.378-1.494 3.717-3.63 3.717-2.169 0-3.648-1.324-3.648-3.709v-1.06c0-2.238 1.502-3.694 3.647-3.694m.008 1.386c-1.223 0-1.92 1.022-1.92 2.393v.914c0 1.37.65 2.384 1.92 2.384 1.254 0 1.897-1.006 1.897-2.384v-.914c0-1.37-.674-2.393-1.897-2.393m16.244-1.246-2.152 8.184h-1.75l-1.711-6.04h-.047l-1.68 6.04H86.44l-2.246-8.184h1.85l1.317 6.24h.077l1.65-6.24h1.618l1.695 6.24h.078l1.34-6.24zm1.704 8.184v-8.184h1.688v1.47h.085c.209-.642.805-1.594 2.462-1.594 1.649 0 2.756.913 2.756 2.78v5.528h-1.719v-5.025c0-1.247-.65-1.82-1.618-1.82-1.27 0-1.936.976-1.936 2.3v4.545zm9.593 0V14.453h1.719v11.126zm7.619-8.324c2.137 0 3.631 1.386 3.631 3.686v1.06c0 2.378-1.494 3.717-3.631 3.717-2.168 0-3.647-1.324-3.647-3.709v-1.06c0-2.238 1.502-3.694 3.647-3.694m.007 1.386c-1.223 0-1.92 1.022-1.92 2.393v.914c0 1.37.651 2.384 1.92 2.384 1.255 0 1.897-1.006 1.897-2.384v-.914c0-1.37-.673-2.393-1.897-2.393m8.076 7.062c-1.587 0-2.679-.976-2.679-2.501 0-1.448 1.007-2.424 2.896-2.424h2.067v-.766c0-.937-.596-1.378-1.541-1.378-.929 0-1.347.387-1.478.929h-1.634c.101-1.37 1.13-2.292 3.167-2.292 1.75 0 3.197.728 3.197 2.764v5.544h-1.633v-1.06h-.078c-.364.626-1.076 1.184-2.284 1.184m.534-1.332c.976 0 1.75-.666 1.75-1.556v-.883h-1.796c-.999 0-1.44.503-1.44 1.185 0 .851.712 1.254 1.486 1.254m8.757-7.085c1.154 0 2.037.511 2.354 1.34h.085v-4.174h1.719V25.58h-1.672V24.27h-.085c-.248.829-1.231 1.417-2.424 1.417-1.881 0-3.105-1.34-3.105-3.5v-1.4c0-2.161 1.247-3.5 3.128-3.5m.48 1.41c-1.145 0-1.858.851-1.858 2.338v.898c0 1.494.72 2.346 1.897 2.346 1.162 0 1.92-.844 1.92-2.238v-1.238c0-1.262-.828-2.106-1.959-2.106m13.117-1.44c2.137 0 3.631 1.385 3.631 3.685v1.06c0 2.378-1.494 3.717-3.631 3.717-2.168 0-3.647-1.324-3.647-3.709v-1.06c0-2.238 1.502-3.694 3.647-3.694m.007 1.385c-1.223 0-1.92 1.022-1.92 2.393v.914c0 1.37.651 2.384 1.92 2.384 1.255 0 1.897-1.006 1.897-2.384v-.914c0-1.37-.673-2.393-1.897-2.393m5.838 6.938v-8.184h1.688v1.47h.086c.209-.642.805-1.594 2.462-1.594 1.649 0 2.756.913 2.756 2.78v5.528h-1.719v-5.025c0-1.247-.65-1.82-1.618-1.82-1.27 0-1.936.976-1.936 2.3v4.545zm13.643-8.13v-2.044h1.68v2.044h1.835v1.347h-1.835v4.344c0 .89.333 1.138 1.255 1.138.232 0 .542-.015.673-.03v1.315c-.139.024-.712.07-1.099.07-1.99 0-2.532-.712-2.532-2.354v-4.483h-1.247V17.45zm5.683 8.13V14.453h1.712v4.413h.085c.178-.58.844-1.595 2.485-1.595 1.595 0 2.733.921 2.733 2.787v5.52h-1.711v-5.016c0-1.247-.689-1.828-1.665-1.828-1.231 0-1.927.968-1.927 2.3v4.545zm12.784.14c-2.23 0-3.616-1.371-3.616-3.679v-1.107c0-2.323 1.517-3.678 3.515-3.678 2.052 0 3.5 1.425 3.5 3.678v.96h-5.312v.403c0 1.177.697 2.044 1.905 2.044.898 0 1.517-.426 1.634-.937h1.68c-.101.945-1.1 2.315-3.306 2.315m-1.913-4.948h3.632v-.109c0-1.23-.721-2.052-1.812-2.052s-1.82.821-1.82 2.052zM67.887 54.579H64.31l7.278-21.138h3.933l7.263 21.138h-3.717l-1.873-5.854h-7.418zm5.683-17.483h-.14l-2.864 8.935h5.838zM92.656 54.81c-2.121 0-3.732-1.006-4.599-2.508h-.124v7.711h-3.438V38.211h3.345v2.4h.124c.898-1.564 2.57-2.617 4.77-2.617 3.67 0 6.287 2.772 6.287 7.665v1.456c0 4.862-2.586 7.696-6.365 7.696m-.79-2.834c2.184 0 3.67-1.75 3.67-5.048v-1.146c0-3.174-1.393-4.986-3.731-4.986-2.4 0-3.903 1.95-3.903 4.97v1.162c0 3.097 1.518 5.048 3.965 5.048m18.266 2.834c-2.121 0-3.732-1.006-4.599-2.508h-.124v7.711h-3.438V38.211h3.345v2.4h.124c.898-1.564 2.571-2.617 4.769-2.617 3.671 0 6.288 2.772 6.288 7.665v1.456c0 4.862-2.587 7.696-6.365 7.696m-.79-2.834c2.184 0 3.67-1.75 3.67-5.048v-1.146c0-3.174-1.393-4.986-3.732-4.986-2.4 0-3.902 1.95-3.902 4.97v1.162c0 3.097 1.518 5.048 3.964 5.048m14.279-3.267h3.437c.155 1.827 1.766 3.391 4.754 3.391 2.741 0 4.367-1.285 4.367-3.283 0-1.61-1.084-2.477-3.344-3.02l-3.469-.867c-2.726-.634-5.172-2.26-5.172-5.698 0-4.042 3.53-6.256 7.634-6.256s7.526 2.214 7.603 6.163h-3.375c-.155-1.797-1.534-3.283-4.274-3.283-2.416 0-4.058 1.146-4.058 3.112 0 1.379.96 2.37 2.927 2.819l3.453.852c3.175.774 5.591 2.276 5.591 5.868 0 4.15-3.361 6.489-8.146 6.489-5.884 0-7.851-3.438-7.928-6.287m20.263-10.5v-3.98h3.376v3.98h3.19v2.757h-3.19v8.734c0 1.78.666 2.276 2.508 2.276.295 0 .573 0 .775-.03v2.632c-.279.046-.93.108-1.626.108-3.98 0-5.08-1.424-5.08-4.707v-9.013h-2.261v-2.756zm15.85-.278c4.707 0 7.262 3.314 7.262 7.774v1.316c0 4.615-2.539 7.836-7.262 7.836s-7.294-3.221-7.294-7.836v-1.316c0-4.445 2.586-7.774 7.294-7.774m0 2.756c-2.556 0-3.825 2.09-3.825 5.064v1.255c0 2.926 1.254 5.079 3.825 5.079 2.57 0 3.809-2.137 3.809-5.08v-1.254c0-2.989-1.254-5.064-3.809-5.064m10.166 13.89V38.212h3.438v2.152h.124c.418-1.022 1.641-2.385 3.918-2.385q.674 0 1.161.093v3.035c-.294-.077-.898-.123-1.471-.123-2.756 0-3.686 1.703-3.686 3.902v9.694zm16.98.28c-4.382 0-7.169-2.896-7.169-7.743v-1.657c0-4.568 2.725-7.526 7.03-7.526 4.367 0 6.999 3.066 6.999 7.68v1.565h-10.638v.387c0 2.756 1.487 4.584 3.825 4.584 1.75 0 2.942-.868 3.36-2.277h3.268c-.496 2.648-2.633 4.987-6.675 4.987m-3.778-10.081h7.278v-.031c0-2.323-1.44-4.15-3.623-4.15-2.215 0-3.655 1.827-3.655 4.15z"/></svg>