<svg xmlns="http://www.w3.org/2000/svg" width="1920" height="1000" fill="none"><g clip-path="url(#a)"><path fill="#fff" d="M0 0h1920v1000H0z"/><path stroke="#E6E6E6" stroke-miterlimit="10" stroke-width="3" d="M961.136 1147.1C445.623 868.198 95.522 322.924 95.522-304.117S445.623-1476.35 961.136-1755.33"/><path stroke="#E6E6E6" stroke-miterlimit="10" stroke-width="3" d="M961.136-1755.33c-143.316 35.48-283.967 93.51-417.41 173.71-418.742 251.73-709.605 730.272-709.605 1277.503 0 547.232 290.863 1025.776 709.605 1277.501 133.443 80.196 274.094 138.236 417.41 173.716"/><path stroke="#E6E6E6" stroke-miterlimit="10" stroke-width="3" d="M961.136-1755.33c-161.338 3.13-327.221 35.4-490.753 99.39C-46.776-1453.8-427.279-924.109-427.279-304.117S-46.776 845.563 470.383 1047.71c163.611 63.91 329.494 96.26 490.753 99.39"/><path stroke="#E6E6E6" stroke-miterlimit="10" stroke-width="3" d="M961.136-1755.33c-179.282-29.22-370.552-22.8-564.173 25.06C-218.77-1578.17-688.836-996.791-688.836-304.117S-218.849 970.016 396.884 1122.04c193.621 47.85 384.892 54.27 564.174 25.06"/><path stroke="#E6E6E6" stroke-miterlimit="10" stroke-width="3" d="M961.136-1755.33c-197.304-61.56-413.962-81.54-637.594-49.27C-391-1704.27-950.315-1069.47-950.315-304.117-950.315 461.24-391 1096.11 323.463 1196.36c223.632 32.19 440.29 12.3 637.595-49.26"/><path stroke="#E6E6E6" stroke-miterlimit="10" stroke-width="3" d="M961.136-1755.33c-215.326-93.91-457.216-139.73-711.016-123.59-812.88 50.12-1461.84 736.76-1461.84 1574.804 0 838.039 649.039 1524.686 1461.84 1574.806 253.8 16.14 495.69-29.68 711.016-123.59"/><path stroke="#E6E6E6" stroke-miterlimit="10" stroke-width="3" d="M961.136-1755.33c-233.348-126.18-500.469-197.92-784.436-197.92-911.219 0-1649.89 738.33-1649.89 1649.133 0 910.8 738.671 1649.137 1649.89 1649.137 283.889 0 551.088-71.74 784.358-197.92"/><path stroke="#E6E6E6" stroke-miterlimit="10" stroke-width="3" d="M296.43 504.552c279.031-515.198 824.55-865.138 1451.88-865.138S2921.17-10.646 3200.2 504.552"/><path stroke="#E6E6E6" stroke-miterlimit="10" stroke-width="3" d="M3200.2 504.552c-35.5-143.25-93.56-283.837-173.8-417.218-251.84-418.55-730.6-709.279-1278.09-709.279-547.48 0-1026.243 290.729-1278.084 709.279-80.238 133.381-138.3 273.968-173.796 417.218"/><path stroke="#E6E6E6" stroke-miterlimit="10" stroke-width="3" d="M3200.2 504.552c-3.13-161.264-35.42-327.07-99.44-490.527-202.24-516.921-732.17-897.25-1352.45-897.25-620.27 0-1150.204 380.329-1352.445 897.25-63.939 163.535-96.301 329.341-99.435 490.527"/><path stroke="#E6E6E6" stroke-miterlimit="10" stroke-width="3" d="M3200.2 504.552c29.23-179.2 22.8-370.382-25.07-563.914-152.1-615.45-733.82-1085.218-1426.82-1085.218-692.99 0-1274.714 469.768-1426.806 1085.218-47.876 193.532-54.302 384.714-25.074 563.914"/><path stroke="#E6E6E6" stroke-miterlimit="10" stroke-width="3" d="M3200.2 504.552c61.59-197.214 81.57-413.772 49.29-637.301-100.38-714.135-735.47-1273.191-1501.18-1273.191-765.704 0-1400.87 559.056-1501.167 1273.191-32.205 223.529-12.302 440.087 49.287 637.301"/><path stroke="#E6E6E6" stroke-miterlimit="10" stroke-width="3" d="M3200.2 504.552c93.95-215.227 139.79-457.005 123.65-710.688C3273.7-1018.64 2586.74-1667.3 1748.31-1667.3c-838.42 0-1525.379 648.74-1575.528 1461.164C156.64 47.547 202.479 289.325 296.43 504.552"/><path stroke="#E6E6E6" stroke-miterlimit="10" stroke-width="3" d="M3200.2 504.552c126.31-233.163 198.01-500.239 198.01-783.997 0-910.795-738.68-1649.135-1649.9-1649.135-911.214 0-1649.968 738.34-1649.968 1649.135 0 283.758 71.776 550.834 198.009 783.997"/><path stroke="#E6E6E6" stroke-miterlimit="10" stroke-width="3" d="M1000.16-166.114c508.77 290.885 846.02 844.226 831.37 1471.034-14.65 626.8-377.45 1163.78-899.307 1430.54"/><path stroke="#E6E6E6" stroke-miterlimit="10" stroke-width="3" d="M932.223 2735.54c144.097-32.12 286.087-86.78 421.327-163.93 424.54-241.86 726.53-713.43 739.3-1260.58 12.85-547.156-266.73-1032.279-679.51-1293.794-131.56-83.334-270.73-144.581-413.18-183.429"/><path stroke="#E6E6E6" stroke-miterlimit="10" stroke-width="3" d="M932.223 2735.54c161.337.62 327.927-27.81 492.947-87.88 521.7-190.01 914.59-710.69 929.08-1330.45 14.5-619.753-353.55-1158.291-865.77-1372.5-162.04-67.748-327.14-103.932-488.32-110.824"/><path stroke="#E6E6E6" stroke-miterlimit="10" stroke-width="3" d="M932.223 2735.54c178.577 33.36 369.927 31.4 564.647-11.83 619.1-137.61 1102.64-707.87 1118.86-1400.39 16.22-692.514-440.05-1284.78-1052.02-1451.135-192.45-52.319-383.49-63.206-563.47-38.221"/><path stroke="#E6E6E6" stroke-miterlimit="10" stroke-width="3" d="M932.223 2735.54c195.817 66.18 411.927 91.16 636.257 64.22 716.66-83.57 1290.63-705.13 1308.57-1470.33C2895 564.233 2350.65-83.485 1638.69-200.419c-222.85-37.438-439.9-22.557-638.53 34.383"/><path stroke="#E6E6E6" stroke-miterlimit="10" stroke-width="3" d="M932.223 2735.54c213.057 98.92 453.767 150.37 707.877 140.19 813.82-31.09 1478.69-702.31 1498.35-1540.19 19.67-837.881-613.14-1539.484-1424.61-1608.563-253.33-22.008-496.24 18.092-713.68 106.987"/><path stroke="#E6E6E6" stroke-miterlimit="10" stroke-width="3" d="M932.223 2735.54c230.297 131.65 495.687 209.58 779.497 216.24 910.99 21.31 1666.74-699.56 1688.06-1610.13 21.31-910.564-699.89-1665.974-1610.88-1687.277-283.81-6.657-552.57 58.819-788.82 179.513"/><path stroke="#E6E6E6" stroke-miterlimit="10" stroke-width="3" d="M1621.53 494.84c-279.03 515.2-824.553 865.14-1451.882 865.14S-1003.13 1010.04-1282.24 494.84"/><path stroke="#E6E6E6" stroke-miterlimit="10" stroke-width="3" d="M-1282.24 494.84c35.5 143.25 93.56 283.837 173.8 417.218C-856.6 1330.61-377.836 1621.34 169.648 1621.34c547.561 0 1026.252-290.73 1278.092-709.282 80.23-133.381 138.3-273.968 173.79-417.218"/><path stroke="#E6E6E6" stroke-miterlimit="10" stroke-width="3" d="M-1282.24 494.84c3.14 161.264 35.42 327.07 99.44 490.527 202.239 516.923 732.17 897.253 1352.448 897.253 620.277 0 1150.212-380.33 1352.452-897.253 63.94-163.535 96.3-329.342 99.43-490.527"/><path stroke="#E6E6E6" stroke-miterlimit="10" stroke-width="3" d="M-1282.24 494.84c-29.22 179.199-22.8 370.382 25.08 563.91 152.09 615.45 733.814 1085.23 1426.808 1085.23S1444.37 1674.2 1596.46 1058.75c47.87-193.528 54.3-384.711 25.07-563.91"/><path stroke="#E6E6E6" stroke-miterlimit="10" stroke-width="3" d="M-1282.24 494.84c-61.59 197.213-81.57 413.772-49.28 637.3 100.37 714.14 735.459 1273.19 1501.168 1273.19S1570.52 1846.28 1670.82 1132.14c32.2-223.528 12.3-440.087-49.29-637.3"/><path stroke="#E6E6E6" stroke-miterlimit="10" stroke-width="3" d="M-1282.24 494.84c-93.95 215.227-139.79 457.005-123.65 710.69 50.15 812.5 737.113 1461.16 1575.538 1461.16 838.422 0 1525.382-648.73 1575.532-1461.16 16.14-253.685-29.7-495.463-123.65-710.69"/><path stroke="#E6E6E6" stroke-miterlimit="10" stroke-width="3" d="M-1282.24 494.84c-126.23 233.163-198.01 500.239-198.01 784 0 910.8 738.679 1649.13 1649.898 1649.13 911.222 0 1649.892-738.33 1649.892-1649.13 0-283.761-71.77-550.837-198.01-784"/></g><defs><clipPath id="a"><path fill="#fff" d="M0 0h1920v1000H0z"/></clipPath></defs></svg>