<svg width="1920" height="1000" viewBox="0 0 1920 1000" fill="none" xmlns="http://www.w3.org/2000/svg">
<g clip-path="url(#clip0_241_750)">
<rect width="1920" height="1000" fill="white"/>
<path d="M961.136 1147.1C445.623 868.198 95.5215 322.924 95.5215 -304.117C95.5215 -931.158 445.623 -1476.35 961.136 -1755.33" stroke="#E6E6E6" stroke-width="3" stroke-miterlimit="10"/>
<path d="M961.136 -1755.33C817.82 -1719.85 677.169 -1661.82 543.726 -1581.62C124.984 -1329.89 -165.879 -851.348 -165.879 -304.117C-165.879 243.115 124.984 721.659 543.726 973.384C677.169 1053.58 817.82 1111.62 961.136 1147.1" stroke="#E6E6E6" stroke-width="3" stroke-miterlimit="10"/>
<path d="M961.136 -1755.33C799.798 -1752.2 633.915 -1719.93 470.383 -1655.94C-46.7756 -1453.8 -427.279 -924.109 -427.279 -304.117C-427.279 315.875 -46.7756 845.563 470.383 1047.71C633.994 1111.62 799.877 1143.97 961.136 1147.1" stroke="#E6E6E6" stroke-width="3" stroke-miterlimit="10"/>
<path d="M961.136 -1755.33C781.854 -1784.55 590.584 -1778.13 396.963 -1730.27C-218.77 -1578.17 -688.836 -996.791 -688.836 -304.117C-688.836 388.558 -218.849 970.016 396.884 1122.04C590.505 1169.89 781.776 1176.31 961.058 1147.1" stroke="#E6E6E6" stroke-width="3" stroke-miterlimit="10"/>
<path d="M961.136 -1755.33C763.832 -1816.89 547.174 -1836.87 323.542 -1804.6C-391 -1704.27 -950.315 -1069.47 -950.315 -304.117C-950.315 461.24 -391 1096.11 323.463 1196.36C547.095 1228.55 763.753 1208.66 961.058 1147.1" stroke="#E6E6E6" stroke-width="3" stroke-miterlimit="10"/>
<path d="M961.136 -1755.33C745.81 -1849.24 503.92 -1895.06 250.12 -1878.92C-562.76 -1828.8 -1211.72 -1142.16 -1211.72 -304.116C-1211.72 533.923 -562.681 1220.57 250.12 1270.69C503.92 1286.83 745.81 1241.01 961.136 1147.1" stroke="#E6E6E6" stroke-width="3" stroke-miterlimit="10"/>
<path d="M961.136 -1755.33C727.788 -1881.51 460.667 -1953.25 176.7 -1953.25C-734.519 -1953.25 -1473.19 -1214.92 -1473.19 -304.117C-1473.19 606.683 -734.519 1345.02 176.7 1345.02C460.589 1345.02 727.788 1273.28 961.058 1147.1" stroke="#E6E6E6" stroke-width="3" stroke-miterlimit="10"/>
<path d="M296.43 504.552C575.461 -10.6463 1120.98 -360.586 1748.31 -360.586C2375.64 -360.586 2921.17 -10.6463 3200.2 504.552" stroke="#E6E6E6" stroke-width="3" stroke-miterlimit="10"/>
<path d="M3200.2 504.552C3164.7 361.302 3106.64 220.715 3026.4 87.3338C2774.56 -331.216 2295.8 -621.945 1748.31 -621.945C1200.83 -621.945 722.067 -331.216 470.226 87.3338C389.988 220.715 331.926 361.302 296.43 504.552" stroke="#E6E6E6" stroke-width="3" stroke-miterlimit="10"/>
<path d="M3200.2 504.552C3197.07 343.288 3164.78 177.482 3100.76 14.0249C2898.52 -502.896 2368.59 -883.225 1748.31 -883.225C1128.04 -883.225 598.106 -502.896 395.865 14.0249C331.926 177.56 299.564 343.366 296.43 504.552" stroke="#E6E6E6" stroke-width="3" stroke-miterlimit="10"/>
<path d="M3200.2 504.552C3229.43 325.352 3223 134.17 3175.13 -59.3623C3023.03 -674.812 2441.31 -1144.58 1748.31 -1144.58C1055.32 -1144.58 473.596 -674.812 321.504 -59.3623C273.628 134.17 267.202 325.352 296.43 504.552" stroke="#E6E6E6" stroke-width="3" stroke-miterlimit="10"/>
<path d="M3200.2 504.552C3261.79 307.338 3281.77 90.7798 3249.49 -132.749C3149.11 -846.884 2514.02 -1405.94 1748.31 -1405.94C982.606 -1405.94 347.44 -846.884 247.143 -132.749C214.938 90.7798 234.841 307.338 296.43 504.552" stroke="#E6E6E6" stroke-width="3" stroke-miterlimit="10"/>
<path d="M3200.2 504.552C3294.15 289.325 3339.99 47.5466 3323.85 -206.136C3273.7 -1018.64 2586.74 -1667.3 1748.31 -1667.3C909.89 -1667.3 222.931 -1018.56 172.782 -206.136C156.64 47.5466 202.479 289.325 296.43 504.552" stroke="#E6E6E6" stroke-width="3" stroke-miterlimit="10"/>
<path d="M3200.2 504.552C3326.51 271.389 3398.21 4.31318 3398.21 -279.445C3398.21 -1190.24 2659.53 -1928.58 1748.31 -1928.58C837.096 -1928.58 98.3423 -1190.24 98.3423 -279.445C98.3423 4.31318 170.118 271.389 296.351 504.552" stroke="#E6E6E6" stroke-width="3" stroke-miterlimit="10"/>
<path d="M1000.16 -166.114C1508.93 124.771 1846.18 678.112 1831.53 1304.92C1816.88 1931.72 1454.08 2468.7 932.223 2735.46" stroke="#E6E6E6" stroke-width="3" stroke-miterlimit="10"/>
<path d="M932.223 2735.54C1076.32 2703.42 1218.31 2648.76 1353.55 2571.61C1778.09 2329.75 2080.08 1858.18 2092.85 1311.03C2105.7 763.874 1826.12 278.751 1413.34 17.236C1281.78 -66.0979 1142.61 -127.345 1000.16 -166.193" stroke="#E6E6E6" stroke-width="3" stroke-miterlimit="10"/>
<path d="M932.223 2735.54C1093.56 2736.16 1260.15 2707.73 1425.17 2647.66C1946.87 2457.65 2339.76 1936.97 2354.25 1317.21C2368.75 697.457 2000.7 158.919 1488.48 -55.2895C1326.44 -123.038 1161.34 -159.222 1000.16 -166.114" stroke="#E6E6E6" stroke-width="3" stroke-miterlimit="10"/>
<path d="M932.223 2735.54C1110.8 2768.9 1302.15 2766.94 1496.87 2723.71C2115.97 2586.1 2599.51 2015.84 2615.73 1323.32C2631.95 630.806 2175.68 38.5395 1563.71 -127.815C1371.26 -180.134 1180.22 -191.021 1000.24 -166.036" stroke="#E6E6E6" stroke-width="3" stroke-miterlimit="10"/>
<path d="M932.223 2735.54C1128.04 2801.72 1344.15 2826.7 1568.48 2799.76C2285.14 2716.19 2859.11 2094.63 2877.05 1329.43C2895 564.233 2350.65 -83.4852 1638.69 -200.419C1415.84 -237.857 1198.79 -222.976 1000.16 -166.036" stroke="#E6E6E6" stroke-width="3" stroke-miterlimit="10"/>
<path d="M932.223 2735.54C1145.28 2834.46 1385.99 2885.91 1640.1 2875.73C2453.92 2844.64 3118.79 2173.42 3138.45 1335.54C3158.12 497.659 2525.31 -203.944 1713.84 -273.023C1460.51 -295.031 1217.6 -254.931 1000.16 -166.036" stroke="#E6E6E6" stroke-width="3" stroke-miterlimit="10"/>
<path d="M932.223 2735.54C1162.52 2867.19 1427.91 2945.12 1711.72 2951.78C2622.71 2973.09 3378.46 2252.22 3399.78 1341.65C3421.09 431.086 2699.89 -324.324 1788.9 -345.627C1505.09 -352.284 1236.33 -286.808 1000.08 -166.114" stroke="#E6E6E6" stroke-width="3" stroke-miterlimit="10"/>
<path d="M1621.53 494.84C1342.5 1010.04 796.977 1359.98 169.648 1359.98C-457.682 1359.98 -1003.13 1010.04 -1282.24 494.84" stroke="#E6E6E6" stroke-width="3" stroke-miterlimit="10"/>
<path d="M-1282.24 494.84C-1246.74 638.09 -1188.68 778.677 -1108.44 912.058C-856.6 1330.61 -377.836 1621.34 169.648 1621.34C717.209 1621.34 1195.9 1330.61 1447.74 912.058C1527.97 778.677 1586.04 638.09 1621.53 494.84" stroke="#E6E6E6" stroke-width="3" stroke-miterlimit="10"/>
<path d="M-1282.24 494.84C-1279.1 656.104 -1246.82 821.91 -1182.8 985.367C-980.561 1502.29 -450.63 1882.62 169.648 1882.62C789.925 1882.62 1319.86 1502.29 1522.1 985.367C1586.04 821.832 1618.4 656.025 1621.53 494.84" stroke="#E6E6E6" stroke-width="3" stroke-miterlimit="10"/>
<path d="M-1282.24 494.84C-1311.46 674.039 -1305.04 865.222 -1257.16 1058.75C-1105.07 1674.2 -523.346 2143.98 169.648 2143.98C862.641 2143.98 1444.37 1674.2 1596.46 1058.75C1644.33 865.222 1650.76 674.039 1621.53 494.84" stroke="#E6E6E6" stroke-width="3" stroke-miterlimit="10"/>
<path d="M-1282.24 494.84C-1343.83 692.053 -1363.81 908.612 -1331.52 1132.14C-1231.15 1846.28 -596.061 2405.33 169.648 2405.33C935.357 2405.33 1570.52 1846.28 1670.82 1132.14C1703.02 908.612 1683.12 692.053 1621.53 494.84" stroke="#E6E6E6" stroke-width="3" stroke-miterlimit="10"/>
<path d="M-1282.24 494.84C-1376.19 710.067 -1422.03 951.845 -1405.89 1205.53C-1355.74 2018.03 -668.777 2666.69 169.648 2666.69C1008.07 2666.69 1695.03 2017.96 1745.18 1205.53C1761.32 951.845 1715.48 710.067 1621.53 494.84" stroke="#E6E6E6" stroke-width="3" stroke-miterlimit="10"/>
<path d="M-1282.24 494.84C-1408.47 728.003 -1480.25 995.079 -1480.25 1278.84C-1480.25 2189.64 -741.571 2927.97 169.648 2927.97C1080.87 2927.97 1819.54 2189.64 1819.54 1278.84C1819.54 995.079 1747.77 728.003 1621.53 494.84" stroke="#E6E6E6" stroke-width="3" stroke-miterlimit="10"/>
</g>
<defs>
<clipPath id="clip0_241_750">
<rect width="1920" height="1000" fill="white"/>
</clipPath>
</defs>
</svg>
