<svg width="24" height="24" viewBox="0 0 24 24" fill="none" xmlns="http://www.w3.org/2000/svg">
<path d="M10.09 9.65727C10.3251 8.98894 10.7892 8.42538 11.4 8.06641C12.0108 7.70743 12.7289 7.57621 13.4272 7.69599C14.1255 7.81576 14.7588 8.1788 15.2151 8.7208C15.6713 9.2628 15.9211 9.9488 15.92 10.6573C15.92 12.6573 12.92 13.6573 12.92 13.6573M13 17.6573H13.01M8.9 20.6573C10.8086 21.6363 13.0041 21.9015 15.0909 21.4051C17.1777 20.9086 19.0186 19.6831 20.2818 17.9495C21.545 16.2158 22.1474 14.088 21.9806 11.9494C21.8137 9.81089 20.8886 7.80224 19.3718 6.28547C17.855 4.76869 15.8464 3.84352 13.7078 3.67669C11.5693 3.50985 9.44147 4.11232 7.70782 5.37552C5.97417 6.63872 4.74869 8.47958 4.25222 10.5664C3.75575 12.6532 4.02094 14.8487 5 16.7573L3 22.6573L8.9 20.6573Z" stroke="#2E2E2E" stroke-width="2" stroke-linecap="round" stroke-linejoin="round"/>
</svg>
