<svg xmlns="http://www.w3.org/2000/svg" width="212" height="72" fill="none"><rect width="209.667" height="68.714" x=".881" y="1.46" fill="#000" rx="9.69"/><rect width="209.667" height="68.714" x=".881" y="1.46" stroke="#A6A6A6" stroke-width="1.762" rx="9.69"/><path fill="#EA4335" d="M31.37 34.868 14.253 53.446l.003.012c.526 2.017 2.326 3.502 4.465 3.502.855 0 1.657-.237 2.345-.651l.055-.033 19.267-11.369z"/><path fill="#FBBC04" d="m48.687 31.705-.016-.011-8.319-4.931-9.371 8.528 9.405 9.614 8.273-4.881a4.75 4.75 0 0 0 2.436-4.168 4.74 4.74 0 0 0-2.408-4.15"/><path fill="#4285F4" d="M14.252 18.186a4.7 4.7 0 0 0-.157 1.217v32.829c0 .42.054.828.159 1.215l17.704-18.103z"/><path fill="#34A853" d="m31.496 35.817 8.858-9.058L21.11 15.35a4.55 4.55 0 0 0-2.39-.675c-2.137 0-3.941 1.488-4.467 3.507l-.002.005z"/><path fill="#fff" d="M93.631 16.472q0 1.786-1.06 2.845-1.19 1.262-3.13 1.262-1.857 0-3.143-1.286-1.286-1.285-1.286-3.166t1.286-3.167q1.286-1.286 3.143-1.286.94 0 1.774.334a3.55 3.55 0 0 1 1.369.94l-.786.786a2.6 2.6 0 0 0-1.024-.738 3.3 3.3 0 0 0-1.333-.274q-1.394 0-2.357.964-.953.976-.953 2.44 0 1.465.953 2.441.963.964 2.357.964 1.273 0 2.119-.714.845-.714.976-1.964h-3.095v-1.024h4.13q.06.333.06.643m6.307-4.607v1.047h-3.88v2.703h3.5v1.023h-3.5v2.703h3.88v1.047h-4.976v-8.523zm4.381 1.047v7.476h-1.095v-7.476h-2.381v-1.047h5.857v1.047zm7.235 7.476h-1.095v-8.523h1.095zm4.623-7.476v7.476h-1.095v-7.476h-2.381v-1.047h5.857v1.047zm14.253 3.214q0 1.893-1.262 3.167-1.274 1.286-3.119 1.286-1.857 0-3.119-1.286-1.262-1.274-1.262-3.166 0-1.893 1.262-3.167 1.262-1.286 3.119-1.286t3.119 1.298q1.262 1.273 1.262 3.155m-7.643 0q0 1.477.929 2.441.94.964 2.333.964t2.322-.964q.94-.952.94-2.44t-.94-2.441q-.928-.964-2.322-.964-1.392 0-2.333.964-.929.964-.929 2.44m10.031 4.262h-1.095v-8.523h1.333l4.143 6.63h.047l-.047-1.642v-4.988h1.095v8.523h-1.143l-4.333-6.952h-.048l.048 1.643zM164.77 46.777h2.87V27.376h-2.87zm25.848-12.413-3.289 8.412h-.099l-3.414-8.412h-3.091l5.12 11.757-2.918 6.54h2.991l7.892-18.297zm-16.274 10.21c-.941 0-2.252-.474-2.252-1.65 0-1.495 1.632-2.07 3.042-2.07 1.262 0 1.857.275 2.623.65-.223 1.797-1.757 3.07-3.413 3.07m.346-10.633c-2.078 0-4.231.923-5.12 2.97l2.547 1.072c.544-1.072 1.558-1.423 2.622-1.423 1.484 0 2.993.899 3.018 2.497v.2c-.52-.3-1.632-.749-2.993-.749-2.745 0-5.541 1.523-5.541 4.367 0 2.597 2.251 4.27 4.773 4.27 1.93 0 2.995-.874 3.662-1.898h.099v1.497h2.769v-7.438c0-3.444-2.546-5.365-5.836-5.365m-17.736 2.785h-4.081v-6.65h4.081c2.146 0 3.364 1.793 3.364 3.325 0 1.503-1.218 3.325-3.364 3.325m-.074-9.35h-6.876v19.4h2.869v-7.35h4.007c3.181 0 6.308-2.324 6.308-6.026s-3.127-6.024-6.308-6.024m-37.496 17.2c-1.983 0-3.642-1.674-3.642-3.974 0-2.325 1.659-4.026 3.642-4.026 1.958 0 3.492 1.7 3.492 4.026 0 2.3-1.534 3.974-3.492 3.974m3.296-9.125h-.1c-.645-.775-1.883-1.475-3.444-1.475-3.271 0-6.268 2.9-6.268 6.626 0 3.7 2.997 6.575 6.268 6.575 1.561 0 2.799-.7 3.444-1.5h.1v.95c0 2.526-1.338 3.876-3.495 3.876-1.759 0-2.849-1.276-3.295-2.351l-2.503 1.05c.719 1.751 2.627 3.9 5.798 3.9 3.37 0 6.22-2 6.22-6.874V34.375h-2.725zm4.707 11.326h2.875V27.374h-2.875zm7.11-6.4c-.074-2.55 1.958-3.85 3.419-3.85 1.141 0 2.107.573 2.428 1.399zm8.92-2.201c-.544-1.474-2.205-4.2-5.599-4.2-3.37 0-6.169 2.674-6.169 6.6 0 3.7 2.774 6.601 6.49 6.601 2.999 0 4.734-1.85 5.452-2.925l-2.23-1.5c-.743 1.1-1.759 1.824-3.222 1.824-1.461 0-2.502-.675-3.171-1.999l8.746-3.651zm-69.681-2.174v2.8h6.64c-.199 1.575-.719 2.725-1.51 3.524-.968.976-2.48 2.052-5.13 2.052-4.09 0-7.285-3.326-7.285-7.451 0-4.127 3.196-7.451 7.285-7.451 2.205 0 3.816.875 5.004 2l1.958-1.976c-1.66-1.6-3.864-2.826-6.962-2.826-5.6 0-10.307 4.602-10.307 10.253s4.707 10.25 10.307 10.25c3.022 0 5.301-1 7.085-2.876 1.835-1.85 2.404-4.449 2.404-6.55 0-.65-.05-1.25-.149-1.75zm17.039 8.574c-1.983 0-3.693-1.65-3.693-4 0-2.375 1.71-4 3.693-4 1.98 0 3.691 1.625 3.691 4 0 2.35-1.71 4-3.691 4m0-10.6c-3.619 0-6.567 2.775-6.567 6.6 0 3.802 2.948 6.601 6.567 6.601 3.617 0 6.565-2.8 6.565-6.6 0-3.826-2.948-6.6-6.565-6.6m14.323 10.6c-1.983 0-3.693-1.65-3.693-4 0-2.375 1.71-4 3.693-4 1.982 0 3.691 1.625 3.691 4 0 2.35-1.709 4-3.691 4m0-10.6c-3.617 0-6.566 2.775-6.566 6.6 0 3.802 2.949 6.601 6.566 6.601s6.565-2.8 6.565-6.6c0-3.826-2.948-6.6-6.565-6.6"/></svg>